<?xml version="1.0" standalone="no"?>
<!DOCTYPE svg PUBLIC "-//W3C//DTD SVG 1.1//EN" "http://www.w3.org/Graphics/SVG/1.1/DTD/svg11.dtd">
<svg xmlns="http://www.w3.org/2000/svg" xmlns:xlink="http://www.w3.org/1999/xlink" width="30" zoomAndPan="magnify" viewBox="0 0 2250 2250.000011" height="30" preserveAspectRatio="xMidYMid meet" version="1.0"><defs><g/></defs><path stroke-linecap="butt" transform="matrix(0.749667, 0, 0, 0.749667, 140.712324, 1415.523734)" fill="none" stroke-linejoin="miter" d="M -0.00184966 3.000938 L 326.888174 3.000938 " stroke="#2b4257" stroke-width="6" stroke-opacity="1" stroke-miterlimit="4"/><path stroke-linecap="butt" transform="matrix(0.00256109, -0.749662, 0.749662, 0.00256109, 138.462782, 1417.76453)" fill="none" stroke-linejoin="miter" d="M -0.00163646 2.998897 L 878.143682 3.000219 " stroke="#2b4257" stroke-width="6" stroke-opacity="1" stroke-miterlimit="4"/><path stroke-linecap="butt" transform="matrix(0.749667, 0.000571297, -0.000571297, 0.749667, 140.714051, 757.213453)" fill="none" stroke-linejoin="miter" d="M -0.001869 2.997981 L 2624.4358 2.998869 " stroke="#2b4257" stroke-width="6" stroke-opacity="1" stroke-miterlimit="4"/><path stroke-linecap="butt" transform="matrix(0.749667, 0, 0, 0.749667, 1863.107358, 1415.523734)" fill="none" stroke-linejoin="miter" d="M -0.00252046 3.000938 L 326.887503 3.000938 " stroke="#2b4257" stroke-width="6" stroke-opacity="1" stroke-miterlimit="4"/><path stroke-linecap="butt" transform="matrix(0.00256109, -0.749662, 0.749662, 0.00256109, 2104.788919, 1417.756806)" fill="none" stroke-linejoin="miter" d="M -0.0015101 3.001547 L 878.143791 2.997658 " stroke="#2b4257" stroke-width="6" stroke-opacity="1" stroke-miterlimit="4"/><g fill="#2b4257" fill-opacity="1"><g transform="translate(414.752048, 1214.269183)"><g><path d="M 114.59375 -114.59375 C 137.0625 -111.53125 153.09375 -105.046875 162.6875 -95.140625 C 172.289062 -85.234375 177.09375 -73.332031 177.09375 -59.4375 C 177.09375 -47.789062 174.128906 -37.472656 168.203125 -28.484375 C 162.285156 -19.503906 153.8125 -12.507812 142.78125 -7.5 C 131.75 -2.5 118.675781 0 103.5625 0 C 98.039062 0 93.34375 -0.101562 89.46875 -0.3125 C 76.394531 -0.71875 63.523438 -0.921875 50.859375 -0.921875 C 34.109375 -0.921875 21.445312 -0.613281 12.875 0 L 12.875 -6.125 C 20.226562 -6.53125 25.585938 -7.347656 28.953125 -8.578125 C 32.328125 -9.804688 34.625 -12.15625 35.84375 -15.625 C 37.070312 -19.09375 37.6875 -24.710938 37.6875 -32.484375 L 37.6875 -184.453125 C 37.6875 -192.210938 37.070312 -197.828125 35.84375 -201.296875 C 34.625 -204.765625 32.328125 -207.113281 28.953125 -208.34375 C 25.585938 -209.570312 20.226562 -210.390625 12.875 -210.796875 L 12.875 -216.921875 C 21.445312 -216.304688 33.90625 -216 50.25 -216 L 83.34375 -216.3125 C 87.21875 -216.519531 91.609375 -216.625 96.515625 -216.625 C 117.347656 -216.625 133.328125 -212.226562 144.453125 -203.4375 C 155.585938 -194.65625 161.15625 -183.015625 161.15625 -168.515625 C 161.15625 -156.671875 157.425781 -146.050781 149.96875 -136.65625 C 142.519531 -127.257812 130.726562 -120.109375 114.59375 -115.203125 Z M 88.859375 -210.796875 C 82.523438 -210.796875 77.773438 -210.078125 74.609375 -208.640625 C 71.441406 -207.210938 69.242188 -204.660156 68.015625 -200.984375 C 66.796875 -197.316406 66.1875 -191.804688 66.1875 -184.453125 L 66.1875 -115.203125 L 86.703125 -115.203125 C 103.453125 -115.203125 115.144531 -119.742188 121.78125 -128.828125 C 128.425781 -137.921875 131.75 -150.023438 131.75 -165.140625 C 131.75 -180.460938 128.378906 -191.898438 121.640625 -199.453125 C 114.898438 -207.015625 103.972656 -210.796875 88.859375 -210.796875 Z M 89.15625 -7.046875 C 127.351562 -7.046875 146.453125 -24.921875 146.453125 -60.671875 C 146.453125 -76.804688 142.109375 -89.0625 133.421875 -97.4375 C 124.742188 -105.8125 110.910156 -110 91.921875 -110 L 66.1875 -110 L 66.1875 -32.484375 C 66.1875 -25.128906 66.796875 -19.710938 68.015625 -16.234375 C 69.242188 -12.765625 71.441406 -10.363281 74.609375 -9.03125 C 77.773438 -7.707031 82.625 -7.046875 89.15625 -7.046875 Z M 89.15625 -7.046875 "/></g></g></g><g fill="#2b4257" fill-opacity="1"><g transform="translate(596.444358, 1214.269183)"><g><path d="M 141.859375 -36.765625 C 138.179688 -25.535156 131.285156 -15.882812 121.171875 -7.8125 C 111.066406 0.257812 98.863281 4.296875 84.5625 4.296875 C 70.0625 4.296875 57.5 0.976562 46.875 -5.65625 C 36.257812 -12.300781 28.140625 -21.597656 22.515625 -33.546875 C 16.898438 -45.492188 14.09375 -59.332031 14.09375 -75.0625 C 14.09375 -92.832031 16.953125 -108.253906 22.671875 -121.328125 C 28.390625 -134.398438 36.457031 -144.457031 46.875 -151.5 C 57.289062 -158.550781 69.445312 -162.078125 83.34375 -162.078125 C 101.71875 -162.078125 115.859375 -156.507812 125.765625 -145.375 C 135.679688 -134.25 140.640625 -117.347656 140.640625 -94.671875 L 44.734375 -94.671875 C 44.117188 -88.953125 43.8125 -82.414062 43.8125 -75.0625 C 43.8125 -61.582031 46.003906 -49.835938 50.390625 -39.828125 C 54.785156 -29.816406 60.609375 -22.101562 67.859375 -16.6875 C 75.117188 -11.28125 82.726562 -8.578125 90.6875 -8.578125 C 100.488281 -8.578125 109.171875 -10.925781 116.734375 -15.625 C 124.296875 -20.320312 130.628906 -28.1875 135.734375 -39.21875 Z M 82.109375 -156.265625 C 72.515625 -156.265625 64.242188 -151.566406 57.296875 -142.171875 C 50.347656 -132.773438 46.054688 -118.882812 44.421875 -100.5 L 111.21875 -100.5 C 111.625 -116.425781 109.320312 -129.703125 104.3125 -140.328125 C 99.3125 -150.953125 91.910156 -156.265625 82.109375 -156.265625 Z M 82.109375 -156.265625 "/></g></g></g><g fill="#2b4257" fill-opacity="1"><g transform="translate(742.288363, 1214.269183)"><g/></g></g><g fill="#2b4257" fill-opacity="1"><g transform="translate(809.388737, 1214.269183)"><g><path d="M 91 -210.796875 C 83.644531 -210.390625 78.28125 -209.570312 74.90625 -208.34375 C 71.539062 -207.113281 69.242188 -204.765625 68.015625 -201.296875 C 66.796875 -197.828125 66.1875 -192.210938 66.1875 -184.453125 L 66.1875 -32.484375 C 66.1875 -24.710938 66.796875 -19.09375 68.015625 -15.625 C 69.242188 -12.15625 71.539062 -9.804688 74.90625 -8.578125 C 78.28125 -7.347656 83.644531 -6.53125 91 -6.125 L 91 0 C 81.601562 -0.613281 68.632812 -0.921875 52.09375 -0.921875 C 34.519531 -0.921875 21.445312 -0.613281 12.875 0 L 12.875 -6.125 C 20.226562 -6.53125 25.585938 -7.347656 28.953125 -8.578125 C 32.328125 -9.804688 34.625 -12.15625 35.84375 -15.625 C 37.070312 -19.09375 37.6875 -24.710938 37.6875 -32.484375 L 37.6875 -184.453125 C 37.6875 -192.210938 37.070312 -197.828125 35.84375 -201.296875 C 34.625 -204.765625 32.328125 -207.113281 28.953125 -208.34375 C 25.585938 -209.570312 20.226562 -210.390625 12.875 -210.796875 L 12.875 -216.921875 C 21.445312 -216.304688 34.519531 -216 52.09375 -216 C 68.425781 -216 81.394531 -216.304688 91 -216.921875 Z M 91 -210.796875 "/></g></g></g><g fill="#2b4257" fill-opacity="1"><g transform="translate(904.064765, 1214.269183)"><g><path d="M 111.828125 -162.078125 C 126.128906 -162.078125 136.957031 -158.195312 144.3125 -150.4375 C 148.1875 -146.351562 150.941406 -141.242188 152.578125 -135.109375 C 154.210938 -128.984375 155.03125 -120.710938 155.03125 -110.296875 L 155.03125 -28.5 C 155.03125 -20.125 156.765625 -14.351562 160.234375 -11.1875 C 163.710938 -8.019531 169.738281 -6.4375 178.3125 -6.4375 L 178.3125 0 C 159.519531 -0.8125 147.265625 -1.21875 141.546875 -1.21875 C 135.828125 -1.21875 124.390625 -0.8125 107.234375 0 L 107.234375 -6.4375 C 114.796875 -6.4375 120.054688 -8.019531 123.015625 -11.1875 C 125.972656 -14.351562 127.453125 -20.125 127.453125 -28.5 L 127.453125 -117.046875 C 127.453125 -128.484375 125.816406 -137.210938 122.546875 -143.234375 C 119.285156 -149.265625 112.648438 -152.28125 102.640625 -152.28125 C 94.265625 -152.28125 86.804688 -149.828125 80.265625 -144.921875 C 73.734375 -140.015625 68.679688 -133.320312 65.109375 -124.84375 C 61.535156 -116.375 59.75 -106.929688 59.75 -96.515625 L 59.75 -28.5 C 59.75 -20.125 61.226562 -14.351562 64.1875 -11.1875 C 67.144531 -8.019531 72.40625 -6.4375 79.96875 -6.4375 L 79.96875 0 C 62.8125 -0.8125 51.375 -1.21875 45.65625 -1.21875 C 39.9375 -1.21875 27.679688 -0.8125 8.890625 0 L 8.890625 -6.4375 C 17.460938 -6.4375 23.484375 -8.019531 26.953125 -11.1875 C 30.429688 -14.351562 32.171875 -20.125 32.171875 -28.5 L 32.171875 -124.390625 C 32.171875 -133.785156 30.429688 -140.628906 26.953125 -144.921875 C 23.484375 -149.210938 17.460938 -151.359375 8.890625 -151.359375 L 8.890625 -157.796875 C 15.421875 -157.179688 21.75 -156.875 27.875 -156.875 C 40.75 -156.875 51.375 -158.300781 59.75 -161.15625 L 59.75 -125 C 64.851562 -138.070312 71.945312 -147.519531 81.03125 -153.34375 C 90.125 -159.164062 100.390625 -162.078125 111.828125 -162.078125 Z M 111.828125 -162.078125 "/></g></g></g><g fill="#da978e" fill-opacity="1"><g transform="translate(1131.271241, 1180.116118)"><g><path d="M 305.859375 -327.78125 C 280.5625 -344.96875 239.765625 -347.328125 191.546875 -334.1875 C 185.8125 -332.828125 180.40625 -331.15625 174.671875 -329.125 C 175.015625 -330.46875 175.359375 -331.828125 175.6875 -333.171875 C 176.359375 -336.546875 174 -339.921875 170.625 -340.921875 C 167.265625 -341.609375 163.546875 -339.234375 162.875 -335.875 C 162.203125 -332.15625 161.1875 -328.109375 160.171875 -323.734375 C 126.453125 -310.578125 94.078125 -291.6875 68.796875 -269.4375 C 20.90625 -227.625 5.0625 -181.09375 25.296875 -140.953125 C 26.640625 -137.921875 30.6875 -136.578125 33.71875 -138.265625 C 37.09375 -139.609375 38.4375 -143.65625 36.75 -147.03125 C 26.640625 -166.921875 18.546875 -208.40625 77.21875 -259.65625 C 99.140625 -278.875 127.125 -295.734375 156.46875 -308.21875 C 148.71875 -274.5 137.578125 -228.640625 125.109375 -177.71875 C 105.546875 -98.125 83.625 -8.09375 67.78125 62.390625 C 59.015625 101.171875 52.9375 129.828125 49.578125 150.40625 C 43.84375 184.796875 45.1875 191.546875 51.9375 193.90625 C 52.609375 194.234375 53.625 194.234375 54.625 194.234375 C 60.703125 194.234375 65.421875 186.140625 73.171875 168.609375 C 74.859375 165.578125 73.171875 161.53125 70.140625 160.171875 C 66.765625 158.828125 62.71875 160.171875 61.375 163.546875 C 61.03125 164.5625 60.359375 165.578125 60.03125 166.25 C 65.421875 127.125 87 34.390625 109.265625 -57.671875 C 117.359375 -40.46875 132.53125 -30.015625 152.421875 -28.65625 C 153.765625 -28.65625 155.453125 -28.65625 156.8125 -28.65625 C 182.4375 -28.65625 212.78125 -43.5 240.4375 -69.796875 C 273.828125 -101.5 302.140625 -148.03125 322.375 -204.6875 C 349.015625 -278.875 328.109375 -312.609375 305.859375 -327.78125 Z M 310.234375 -209.078125 C 285.625 -140.28125 253.921875 -100.484375 231.328125 -78.90625 C 204.6875 -53.625 176.359375 -40.125 153.4375 -41.8125 C 134.21875 -42.828125 121.40625 -54.625 117.359375 -74.859375 C 116.671875 -76.546875 115.671875 -77.890625 114.3125 -78.90625 C 122.40625 -112.296875 130.5 -145 137.578125 -174.671875 C 151.078125 -230.328125 163.21875 -279.546875 171.3125 -314.28125 C 179.0625 -316.984375 187.15625 -319.6875 194.90625 -321.703125 C 239.09375 -333.515625 276.859375 -331.828125 298.78125 -316.984375 C 331.828125 -294.390625 323.390625 -245.828125 310.234375 -209.078125 Z M 310.234375 -209.078125 "/></g></g></g><g fill="#da978e" fill-opacity="1"><g transform="translate(1428.699987, 1180.116118)"><g><path d="M 113.984375 -75.203125 C 110.9375 -77.21875 106.890625 -76.546875 104.875 -73.515625 C 79.578125 -38.109375 59.015625 -15.84375 38.78125 -1.34375 C 28.65625 5.734375 18.890625 7.078125 12.484375 2.359375 C 8.4375 -0.671875 -4.046875 -14.15625 10.453125 -61.375 C 43.15625 -88.34375 61.03125 -113.984375 56.3125 -127.46875 C 54.625 -131.515625 50.578125 -134.21875 46.203125 -134.21875 C 32.703125 -133.875 12.140625 -110.609375 -1.34375 -67.109375 C -17.875 -13.484375 -4.390625 6.0625 5.0625 12.8125 C 9.78125 16.53125 15.171875 18.203125 21.25 18.203125 C 29 18.203125 37.765625 15.171875 46.203125 9.109375 C 67.78125 -6.40625 89.03125 -29.34375 115.328125 -66.09375 C 117.359375 -69.125 116.671875 -73.171875 113.984375 -75.203125 Z M 43.5 -120.046875 C 42.15625 -114.65625 36.421875 -103.859375 20.578125 -87.671875 C 29.34375 -107.234375 38.78125 -116.671875 43.5 -120.046875 Z M 43.5 -120.046875 "/></g></g></g><g fill="#da978e" fill-opacity="1"><g transform="translate(1526.831188, 1180.116118)"><g><path d="M 140.953125 -74.859375 C 137.921875 -76.21875 133.875 -74.859375 132.53125 -71.828125 C 106.890625 -19.5625 87.671875 -3.03125 78.578125 -4.71875 C 74.859375 -5.390625 62.71875 -12.484375 59.6875 -71.484375 C 59.6875 -74.1875 57.671875 -76.546875 55.296875 -77.21875 C 52.609375 -77.890625 49.578125 -77.21875 48.21875 -74.859375 C 46.203125 -72.5 44.171875 -69.796875 42.15625 -66.765625 C 33.71875 -55.296875 22.59375 -39.796875 9.109375 -25.296875 C 7.078125 -22.9375 5.390625 -21.578125 4.390625 -20.90625 C 2.015625 -32.703125 14.5 -77.890625 34.390625 -92.0625 C 40.125 -96.109375 47.890625 -99.140625 58.34375 -87 C 60.703125 -84.3125 64.75 -83.96875 67.4375 -86.328125 C 70.140625 -88.34375 70.484375 -92.734375 68.453125 -95.4375 C 55.640625 -110.265625 43.5 -109.9375 35.40625 -107.234375 C 9.4375 -98.125 -8.09375 -48.21875 -8.765625 -25.296875 C -9.109375 -15.84375 -6.40625 -9.78125 -1.015625 -7.75 C 7.421875 -4.390625 15.84375 -13.484375 18.546875 -16.53125 C 30.015625 -29 40.46875 -42.484375 47.890625 -52.9375 C 51.59375 -14.5 60.703125 4.71875 75.875 8.09375 C 77.21875 8.09375 78.578125 8.4375 79.921875 8.4375 C 102.859375 8.4375 127.46875 -31.703125 144 -66.09375 C 145.671875 -69.46875 144.328125 -73.171875 140.953125 -74.859375 Z M 140.953125 -74.859375 "/></g></g></g><g fill="#da978e" fill-opacity="1"><g transform="translate(1652.277302, 1180.116118)"><g><path d="M 111.28125 -76.546875 C 108.25 -78.234375 104.203125 -77.5625 102.515625 -74.53125 C 79.578125 -39.796875 41.484375 18.203125 16.53125 12.8125 C 12.484375 11.796875 9.109375 9.109375 6.75 4.71875 C 0 -7.421875 1.015625 -31.703125 8.765625 -52.9375 C 17.203125 -75.53125 27.3125 -81.265625 29.34375 -80.9375 C 29.671875 -80.59375 31.703125 -76.21875 29 -65.75 C 27.984375 -62.046875 30.015625 -58.671875 33.390625 -57.671875 C 37.09375 -56.984375 40.46875 -59.015625 41.484375 -62.390625 C 47.890625 -86.671875 36.75 -92.0625 33.390625 -93.40625 C 20.90625 -97.125 5.734375 -82.28125 -3.375 -57.328125 C -11.125 -36.421875 -14.5 -6.75 -4.390625 11.125 C -0.34375 18.890625 6.0625 23.609375 13.828125 25.296875 C 15.84375 25.96875 17.875 25.96875 19.890625 25.96875 C 49.234375 25.96875 80.9375 -18.203125 113.3125 -67.4375 C 115.328125 -70.484375 114.3125 -74.53125 111.28125 -76.546875 Z M 111.28125 -76.546875 "/></g></g></g><g fill="#da978e" fill-opacity="1"><g transform="translate(1752.094684, 1180.116118)"><g><path d="M 113.984375 -75.203125 C 110.9375 -77.21875 106.890625 -76.546875 104.875 -73.515625 C 79.578125 -38.109375 59.015625 -15.84375 38.78125 -1.34375 C 28.65625 5.734375 18.890625 7.078125 12.484375 2.359375 C 8.4375 -0.671875 -4.046875 -14.15625 10.453125 -61.375 C 43.15625 -88.34375 61.03125 -113.984375 56.3125 -127.46875 C 54.625 -131.515625 50.578125 -134.21875 46.203125 -134.21875 C 32.703125 -133.875 12.140625 -110.609375 -1.34375 -67.109375 C -17.875 -13.484375 -4.390625 6.0625 5.0625 12.8125 C 9.78125 16.53125 15.171875 18.203125 21.25 18.203125 C 29 18.203125 37.765625 15.171875 46.203125 9.109375 C 67.78125 -6.40625 89.03125 -29.34375 115.328125 -66.09375 C 117.359375 -69.125 116.671875 -73.171875 113.984375 -75.203125 Z M 43.5 -120.046875 C 42.15625 -114.65625 36.421875 -103.859375 20.578125 -87.671875 C 29.34375 -107.234375 38.78125 -116.671875 43.5 -120.046875 Z M 43.5 -120.046875 "/></g></g></g><g fill="#2b4257" fill-opacity="1"><g transform="translate(455.816355, 1449.624327)"><g><path d="M 27.875 -17.140625 L 27.875 0 L 19.265625 0 L 19.265625 -16.84375 L 0.078125 -51.5 L 8.828125 -51.5 L 23.546875 -26.40625 L 37.953125 -51.5 L 46.78125 -51.5 Z M 27.875 -17.140625 "/></g></g></g><g fill="#2b4257" fill-opacity="1"><g transform="translate(523.12619, 1449.624327)"><g><path d="M 40.015625 -11.625 L 14.046875 -11.625 L 9.125 0 L 0.078125 0 L 22.796875 -51.5 L 31.703125 -51.5 L 54.21875 0 L 44.953125 0 Z M 36.703125 -19.34375 L 27 -42.21875 L 17.28125 -19.34375 Z M 36.703125 -19.34375 "/></g></g></g><g fill="#2b4257" fill-opacity="1"><g transform="translate(597.865775, 1449.624327)"><g><path d="M 6.765625 -51.5 L 27.875 -51.5 C 35.570312 -51.5 41.9375 -49.066406 46.96875 -44.203125 C 52 -39.347656 54.515625 -33.191406 54.515625 -25.734375 C 54.515625 -18.285156 51.988281 -12.132812 46.9375 -7.28125 C 41.882812 -2.425781 35.457031 0 27.65625 0 L 6.765625 0 Z M 15.453125 -43.703125 L 15.453125 -7.796875 L 28.09375 -7.796875 C 33.144531 -7.796875 37.347656 -9.472656 40.703125 -12.828125 C 44.066406 -16.191406 45.75 -20.472656 45.75 -25.671875 C 45.75 -30.867188 44.019531 -35.171875 40.5625 -38.578125 C 37.113281 -41.992188 32.835938 -43.703125 27.734375 -43.703125 Z M 15.453125 -43.703125 "/></g></g></g><g fill="#2b4257" fill-opacity="1"><g transform="translate(675.327155, 1449.624327)"><g><path d="M 15.453125 0 L 6.765625 0 L 6.765625 -51.5 L 15.453125 -51.5 Z M 15.453125 0 "/></g></g></g><g fill="#2b4257" fill-opacity="1"><g transform="translate(717.99377, 1449.624327)"><g><path d="M 39.421875 0 L 30.015625 -15.59375 C 29.523438 -15.539062 28.738281 -15.515625 27.65625 -15.515625 L 15.453125 -15.515625 L 15.453125 0 L 6.765625 0 L 6.765625 -51.5 L 27.65625 -51.5 C 34.226562 -51.5 39.328125 -49.960938 42.953125 -46.890625 C 46.585938 -43.828125 48.40625 -39.5 48.40625 -33.90625 C 48.40625 -29.789062 47.484375 -26.3125 45.640625 -23.46875 C 43.804688 -20.625 41.171875 -18.539062 37.734375 -17.21875 L 49.28125 0 Z M 15.453125 -23.3125 L 27.65625 -23.3125 C 36 -23.3125 40.171875 -26.769531 40.171875 -33.6875 C 40.171875 -40.363281 36 -43.703125 27.65625 -43.703125 L 15.453125 -43.703125 Z M 15.453125 -23.3125 "/></g></g></g><g fill="#2b4257" fill-opacity="1"><g transform="translate(791.629902, 1449.624327)"><g><path d="M 40.015625 -11.625 L 14.046875 -11.625 L 9.125 0 L 0.078125 0 L 22.796875 -51.5 L 31.703125 -51.5 L 54.21875 0 L 44.953125 0 Z M 36.703125 -19.34375 L 27 -42.21875 L 17.28125 -19.34375 Z M 36.703125 -19.34375 "/></g></g></g><g fill="#2b4257" fill-opacity="1"><g transform="translate(866.369488, 1449.624327)"><g/></g></g><g fill="#2b4257" fill-opacity="1"><g transform="translate(905.799386, 1449.624327)"><g><path d="M 51.421875 0 L 42.890625 0 L 15.453125 -36.921875 L 15.453125 0 L 6.765625 0 L 6.765625 -51.5 L 15.296875 -51.5 L 42.890625 -14.484375 L 42.890625 -51.5 L 51.421875 -51.5 Z M 51.421875 0 "/></g></g></g><g fill="#2b4257" fill-opacity="1"><g transform="translate(984.511301, 1449.624327)"><g><path d="M 10.375 -44.25 C 15.625 -49.226562 22.097656 -51.71875 29.796875 -51.71875 C 37.492188 -51.71875 43.960938 -49.226562 49.203125 -44.25 C 54.453125 -39.269531 57.078125 -33.101562 57.078125 -25.75 C 57.078125 -18.394531 54.453125 -12.203125 49.203125 -7.171875 C 43.960938 -2.140625 37.492188 0.375 29.796875 0.375 C 22.097656 0.375 15.625 -2.140625 10.375 -7.171875 C 5.125 -12.203125 2.5 -18.394531 2.5 -25.75 C 2.5 -33.101562 5.125 -39.269531 10.375 -44.25 Z M 29.859375 -43.921875 C 24.765625 -43.921875 20.398438 -42.164062 16.765625 -38.65625 C 13.140625 -35.144531 11.328125 -30.835938 11.328125 -25.734375 C 11.328125 -20.640625 13.15625 -16.316406 16.8125 -12.765625 C 20.46875 -9.210938 24.816406 -7.4375 29.859375 -7.4375 C 34.910156 -7.4375 39.226562 -9.210938 42.8125 -12.765625 C 46.394531 -16.316406 48.1875 -20.640625 48.1875 -25.734375 C 48.1875 -30.835938 46.394531 -35.144531 42.8125 -38.65625 C 39.226562 -42.164062 34.910156 -43.921875 29.859375 -43.921875 Z M 29.859375 -43.921875 "/></g></g></g><g fill="#2b4257" fill-opacity="1"><g transform="translate(1064.547325, 1449.624327)"><g><path d="M 42 -25.3125 L 49.578125 -25.3125 L 49.578125 -6.328125 C 46.929688 -4.316406 43.804688 -2.695312 40.203125 -1.46875 C 36.597656 -0.238281 33.054688 0.375 29.578125 0.375 C 21.972656 0.375 15.554688 -2.140625 10.328125 -7.171875 C 5.109375 -12.203125 2.5 -18.394531 2.5 -25.75 C 2.5 -33.101562 5.144531 -39.269531 10.4375 -44.25 C 15.738281 -49.226562 22.289062 -51.71875 30.09375 -51.71875 C 33.71875 -51.71875 37.28125 -51.066406 40.78125 -49.765625 C 44.289062 -48.460938 47.320312 -46.707031 49.875 -44.5 L 44.953125 -38.109375 C 40.734375 -42.023438 35.78125 -43.984375 30.09375 -43.984375 C 24.84375 -43.984375 20.398438 -42.21875 16.765625 -38.6875 C 13.140625 -35.15625 11.328125 -30.84375 11.328125 -25.75 C 11.328125 -20.59375 13.15625 -16.25 16.8125 -12.71875 C 20.46875 -9.195312 24.914062 -7.4375 30.15625 -7.4375 C 34.132812 -7.4375 38.082031 -8.609375 42 -10.953125 Z M 42 -25.3125 "/></g></g></g><g fill="#2b4257" fill-opacity="1"><g transform="translate(1140.096081, 1449.624327)"><g><path d="M 50.53125 -51.5 L 50.53125 -21.328125 C 50.53125 -14.609375 48.546875 -9.3125 44.578125 -5.4375 C 40.609375 -1.5625 35.140625 0.375 28.171875 0.375 C 21.210938 0.375 15.734375 -1.5625 11.734375 -5.4375 C 7.734375 -9.3125 5.734375 -14.609375 5.734375 -21.328125 L 5.734375 -51.5 L 14.421875 -51.5 L 14.421875 -21.328125 C 14.421875 -17.015625 15.65625 -13.617188 18.125 -11.140625 C 20.601562 -8.671875 23.976562 -7.4375 28.25 -7.4375 C 32.46875 -7.4375 35.789062 -8.660156 38.21875 -11.109375 C 40.644531 -13.554688 41.859375 -16.960938 41.859375 -21.328125 L 41.859375 -51.5 Z M 50.53125 -51.5 "/></g></g></g><g fill="#2b4257" fill-opacity="1"><g transform="translate(1216.748239, 1449.624327)"><g><path d="M 43.546875 -43.703125 L 15.453125 -43.703125 L 15.453125 -29.796875 L 40.609375 -29.796875 L 40.609375 -22 L 15.453125 -22 L 15.453125 -7.796875 L 44.4375 -7.796875 L 44.4375 0 L 6.765625 0 L 6.765625 -51.5 L 43.546875 -51.5 Z M 43.546875 -43.703125 "/></g></g></g><g fill="#2b4257" fill-opacity="1"><g transform="translate(1285.455737, 1449.624327)"><g><path d="M 39.421875 0 L 30.015625 -15.59375 C 29.523438 -15.539062 28.738281 -15.515625 27.65625 -15.515625 L 15.453125 -15.515625 L 15.453125 0 L 6.765625 0 L 6.765625 -51.5 L 27.65625 -51.5 C 34.226562 -51.5 39.328125 -49.960938 42.953125 -46.890625 C 46.585938 -43.828125 48.40625 -39.5 48.40625 -33.90625 C 48.40625 -29.789062 47.484375 -26.3125 45.640625 -23.46875 C 43.804688 -20.625 41.171875 -18.539062 37.734375 -17.21875 L 49.28125 0 Z M 15.453125 -23.3125 L 27.65625 -23.3125 C 36 -23.3125 40.171875 -26.769531 40.171875 -33.6875 C 40.171875 -40.363281 36 -43.703125 27.65625 -43.703125 L 15.453125 -43.703125 Z M 15.453125 -23.3125 "/></g></g></g><g fill="#2b4257" fill-opacity="1"><g transform="translate(1359.091922, 1449.624327)"><g><path d="M 40.015625 -11.625 L 14.046875 -11.625 L 9.125 0 L 0.078125 0 L 22.796875 -51.5 L 31.703125 -51.5 L 54.21875 0 L 44.953125 0 Z M 36.703125 -19.34375 L 27 -42.21875 L 17.28125 -19.34375 Z M 36.703125 -19.34375 "/></g></g></g><g fill="#2b4257" fill-opacity="1"><g transform="translate(1433.831507, 1449.624327)"><g><path d="M 23.6875 -51.859375 C 30.351562 -51.859375 36.359375 -50.09375 41.703125 -46.5625 L 38.109375 -38.921875 C 32.859375 -42.109375 27.832031 -43.703125 23.03125 -43.703125 C 20.425781 -43.703125 18.375 -43.234375 16.875 -42.296875 C 15.382812 -41.367188 14.640625 -40.046875 14.640625 -38.328125 C 14.640625 -36.609375 15.328125 -35.144531 16.703125 -33.9375 C 18.078125 -32.738281 19.789062 -31.859375 21.84375 -31.296875 C 23.90625 -30.734375 26.132812 -30.019531 28.53125 -29.15625 C 30.9375 -28.300781 33.171875 -27.394531 35.234375 -26.4375 C 37.296875 -25.488281 39 -23.992188 40.34375 -21.953125 C 41.695312 -19.921875 42.375 -17.457031 42.375 -14.5625 C 42.375 -10.050781 40.570312 -6.445312 36.96875 -3.75 C 33.363281 -1.050781 28.691406 0.296875 22.953125 0.296875 C 19.023438 0.296875 15.222656 -0.4375 11.546875 -1.90625 C 7.867188 -3.382812 4.65625 -5.375 1.90625 -7.875 L 5.671875 -15.375 C 8.265625 -12.96875 11.117188 -11.113281 14.234375 -9.8125 C 17.347656 -8.519531 20.300781 -7.875 23.09375 -7.875 C 26.132812 -7.875 28.5 -8.425781 30.1875 -9.53125 C 31.882812 -10.632812 32.734375 -12.164062 32.734375 -14.125 C 32.734375 -15.882812 32.046875 -17.363281 30.671875 -18.5625 C 29.296875 -19.769531 27.578125 -20.65625 25.515625 -21.21875 C 23.460938 -21.78125 21.234375 -22.46875 18.828125 -23.28125 C 16.429688 -24.09375 14.203125 -24.953125 12.140625 -25.859375 C 10.078125 -26.765625 8.359375 -28.222656 6.984375 -30.234375 C 5.609375 -32.242188 4.921875 -34.671875 4.921875 -37.515625 C 4.921875 -41.878906 6.640625 -45.359375 10.078125 -47.953125 C 13.515625 -50.554688 18.050781 -51.859375 23.6875 -51.859375 Z M 23.6875 -51.859375 "/></g></g></g><g fill="#2b4257" fill-opacity="1"><g transform="translate(1500.037902, 1449.624327)"><g><path d="M 8.015625 -8.90625 C 9.242188 -8.90625 10.296875 -8.472656 11.171875 -7.609375 C 12.054688 -6.753906 12.5 -5.613281 12.5 -4.1875 C 12.5 -2.863281 12.0625 -1.566406 11.1875 -0.296875 L 6.984375 6.03125 L 2.640625 6.03125 L 5.4375 -0.375 C 4.113281 -1.25 3.453125 -2.519531 3.453125 -4.1875 C 3.453125 -5.5625 3.878906 -6.691406 4.734375 -7.578125 C 5.597656 -8.460938 6.691406 -8.90625 8.015625 -8.90625 Z M 8.015625 -8.90625 "/></g></g></g><g fill="#2b4257" fill-opacity="1"><g transform="translate(1536.231048, 1449.624327)"><g/></g></g><g fill="#2b4257" fill-opacity="1"><g transform="translate(1575.660946, 1449.624327)"><g><path d="M 61.203125 0 L 53.1875 0 L 53.109375 -38.46875 L 36.859375 -5.375 L 31.1875 -5.375 L 14.9375 -38.46875 L 14.9375 0 L 6.765625 0 L 6.765625 -51.5 L 17.0625 -51.5 L 34.0625 -17.28125 L 50.984375 -51.5 L 61.203125 -51.5 Z M 61.203125 0 "/></g></g></g><g fill="#2b4257" fill-opacity="1"><g transform="translate(1664.156569, 1449.624327)"><g><path d="M 4.703125 -7.6875 C 5.585938 -8.59375 6.691406 -9.046875 8.015625 -9.046875 C 9.335938 -9.046875 10.441406 -8.59375 11.328125 -7.6875 C 12.210938 -6.78125 12.65625 -5.640625 12.65625 -4.265625 C 12.65625 -2.847656 12.210938 -1.671875 11.328125 -0.734375 C 10.441406 0.191406 9.335938 0.65625 8.015625 0.65625 C 6.691406 0.65625 5.585938 0.191406 4.703125 -0.734375 C 3.828125 -1.671875 3.390625 -2.847656 3.390625 -4.265625 C 3.390625 -5.640625 3.828125 -6.78125 4.703125 -7.6875 Z M 4.703125 -7.6875 "/></g></g></g><g fill="#2b4257" fill-opacity="1"><g transform="translate(1700.644016, 1449.624327)"><g><path d="M 6.765625 -51.5 L 27.875 -51.5 C 35.570312 -51.5 41.9375 -49.066406 46.96875 -44.203125 C 52 -39.347656 54.515625 -33.191406 54.515625 -25.734375 C 54.515625 -18.285156 51.988281 -12.132812 46.9375 -7.28125 C 41.882812 -2.425781 35.457031 0 27.65625 0 L 6.765625 0 Z M 15.453125 -43.703125 L 15.453125 -7.796875 L 28.09375 -7.796875 C 33.144531 -7.796875 37.347656 -9.472656 40.703125 -12.828125 C 44.066406 -16.191406 45.75 -20.472656 45.75 -25.671875 C 45.75 -30.867188 44.019531 -35.171875 40.5625 -38.578125 C 37.113281 -41.992188 32.835938 -43.703125 27.734375 -43.703125 Z M 15.453125 -43.703125 "/></g></g></g><g fill="#2b4257" fill-opacity="1"><g transform="translate(1778.105345, 1449.624327)"><g><path d="M 4.703125 -7.6875 C 5.585938 -8.59375 6.691406 -9.046875 8.015625 -9.046875 C 9.335938 -9.046875 10.441406 -8.59375 11.328125 -7.6875 C 12.210938 -6.78125 12.65625 -5.640625 12.65625 -4.265625 C 12.65625 -2.847656 12.210938 -1.671875 11.328125 -0.734375 C 10.441406 0.191406 9.335938 0.65625 8.015625 0.65625 C 6.691406 0.65625 5.585938 0.191406 4.703125 -0.734375 C 3.828125 -1.671875 3.390625 -2.847656 3.390625 -4.265625 C 3.390625 -5.640625 3.828125 -6.78125 4.703125 -7.6875 Z M 4.703125 -7.6875 "/></g></g></g></svg>