<?xml version="1.0" encoding="UTF-8"?>
<svg width="1200pt" height="1200pt" version="1.1" viewBox="0 0 1200 1200" xmlns="http://www.w3.org/2000/svg">
 <path d="m829.07 78.59c-37.895-31.055-64.223-23.746-102.19 43.945-25.078 44.762-65.004 50.16-89.461 48.793l0.16797-8.9531c28.355-14.102 48.348-42.695 48.348-76.402 0.003906-47.574-38.504-85.973-85.93-85.973s-86.09 38.398-86.09 85.98c0 33.707 20.004 62.305 48.434 76.332l0.085938 9.0234c-24.371 1.3672-64.379-4.0195-89.461-48.793-37.812-67.691-64.223-75-102.02-43.945-38.055 31.094-188.05 210.35-370.95 193.9 0 0 36.254 82.309 135.07 64.066 0 0 52.812 54.805 138.52 16.441 0 0 44.531 40.164 115.39 3.6367 0 0 52.656 40.234 108.83 5.4727 0 0 31.715 22.969 66.961 17.027l2.2578 206.95c-3.9844-0.78125-7.1875-1.7148-11.398-2.4609-0.15625-0.070312-61.402-13.199-126.18-31.367-62.34-16.332-130.78-42.816-140.86-56.605 0.86328-0.86328 2.2695-1.5234 4.0664-2.3867 5.543-2.9297 15-5.9414 26.258-8.2422 22.883-4.6562 53.902-7.0312 85.078-8.2812 61.957-2.2305 73.129 0.46875 74.219 0.67188 0.085937-1.957 35.855 4.2227 45.707-32.23-0.38281-0.3125 0.70703-1.8008 0.085937-2.6641-2.0273-25.078-21.324-26.328-37.117-29.258-25.621-3.3594-12.266-2.0273-46.789-1.5977-56.723 4.2227-231.49-9.9258-253.51 82.066 0 2.5781-0.15625 4.2227-0.46875 6.4922 7.3438 80.113 173.21 114.88 293.36 138.83-40.777 27.926-62.578 64.246-71.258 111.21-4.1406 50.074 35.629 97.738 127.97 151.01-70.164 49.691-116.26 96.324-112.5 152.66 6.5625 45.938 47.113 107.34 126.79 146.02 0.23828 0.085937 0.3125-0.085938 0.46875 0h0.23828s-55.777-85.078-59.531-131.64c-3.6719-27.191 11.797-67.344 79.609-115.71l1.957 170.16h0.3125c0.46875 14.461 11.641 26.016 25.703 26.016 14.051 0 25.234-11.555 25.703-26.016h0.23828l2.2578-165.71c62.496 46.332 76.645 84.84 73.043 111.25-3.7422 46.559-59.449 131.64-59.449 131.64h0.15625s0.16797 0.085937 0.55078 0c79.609-38.676 120.24-100.08 126.72-146.02 3.7422-56.328-42.336-102.97-112.41-152.66 92.258-53.27 132.11-100.93 127.97-151.01-8.6758-46.957-30.469-83.281-71.328-111.21 120.24-23.953 286.02-58.715 293.36-138.83-0.3125-2.2695-0.46875-3.9102-0.46875-6.4922-21.961-91.992-196.8-77.844-253.52-82.066-34.523-0.43359-21.168-1.7539-46.789 1.5977-15.781 2.9297-35.074 4.1758-37.117 29.258-0.625 0.86328 0.55078 2.3398 0.16797 2.6641 9.8398 36.445 45.625 30.266 45.707 32.23 1.0078-0.20312 12.191-2.8906 74.219-0.67187 31.094 1.2461 62.113 3.6367 84.996 8.2812 11.328 2.3047 20.629 5.3047 26.258 8.2422 1.8008 0.86328 3.2773 1.5234 4.1523 2.3867-10.078 13.789-78.516 40.273-140.86 56.605-64.848 18.168-126.1 31.285-126.25 31.367-1.5586 0.3125-2.8086 0.625-4.3672 0.89844l2.6641-205.43c35.461 6.2148 67.414-16.992 67.414-16.992 56.016 34.766 108.83-5.4727 108.83-5.4727 70.848 36.527 115.31-3.6367 115.31-3.6367 85.703 38.363 138.52-16.441 138.52-16.441 98.77 18.254 135.09-64.055 135.09-64.055-182.96 16.453-332.96-162.8-370.93-193.91zm-309.85 733.94c-22.883-14.219-33.59-33.434-31.488-46.402 1.2461-18.047-5.0039-61.094 80.387-92.426l1.957 170.94c-16.473-10.391-33.516-21.098-50.855-32.113zm185.16-46.402c2.1133 12.973-8.6055 32.195-31.488 46.402-15 9.6133-29.688 18.742-44.062 27.805l2.1953-163.98c77.879 31.176 72.109 72.277 73.355 89.773z"/>
</svg>
